<?xml version="1.0" encoding="UTF-8"?>
<!DOCTYPE svg PUBLIC "-//W3C//DTD SVG 1.1//EN" "http://www.w3.org/Graphics/SVG/1.1/DTD/svg11.dtd">
<svg xmlns="http://www.w3.org/2000/svg" version="1.1" width="640px" height="640px" style="shape-rendering:geometricPrecision; text-rendering:geometricPrecision; image-rendering:optimizeQuality; fill-rule:evenodd; clip-rule:evenodd" xmlns:xlink="http://www.w3.org/1999/xlink">
<g><path style="opacity:0.502" fill="#93757f" d="M 279.5,127.5 C 278.737,128.268 277.737,128.768 276.5,129C 269.174,129.5 261.841,129.666 254.5,129.5C 262.687,127.523 271.02,126.857 279.5,127.5 Z"/></g>
<g><path style="opacity:0.345" fill="#9b808a" d="M 280.5,127.5 C 285.654,128.006 290.654,128.673 295.5,129.5C 291.154,129.666 286.821,129.499 282.5,129C 281.584,128.722 280.918,128.222 280.5,127.5 Z"/></g>
<g><path style="opacity:0.944" fill="#744956" d="M 279.5,127.5 C 279.833,127.5 280.167,127.5 280.5,127.5C 280.918,128.222 281.584,128.722 282.5,129C 286.821,129.499 291.154,129.666 295.5,129.5C 299.8,129.719 303.8,130.719 307.5,132.5C 312.298,134.284 317.298,135.617 322.5,136.5C 360.734,148.574 390.734,171.407 412.5,205C 413.962,204.937 415.295,204.271 416.5,203C 422.502,202.245 427.335,204.412 431,209.5C 437.362,217.563 442.696,226.23 447,235.5C 447.236,237.764 447.736,239.931 448.5,242C 447.736,244.069 447.236,246.236 447,248.5C 445.027,251.617 443.193,254.784 441.5,258C 461.203,266.579 468.703,281.079 464,301.5C 460.606,306.082 456.106,307.582 450.5,306C 447.135,304.656 444.135,302.823 441.5,300.5C 440.542,299.038 439.376,297.705 438,296.5C 437.501,300.821 437.334,305.154 437.5,309.5C 437.5,311.167 437.5,312.833 437.5,314.5C 436.85,314.804 436.183,315.137 435.5,315.5C 434.692,313.577 434.192,311.577 434,309.5C 433.583,308.244 432.75,307.577 431.5,307.5C 433.465,229.045 398.465,174.712 326.5,144.5C 265.211,124.598 210.211,135.431 161.5,177C 145.525,191.631 133.525,208.965 125.5,229C 129.681,233.189 133.514,237.689 137,242.5C 138.748,249.545 138.415,256.545 136,263.5C 133.567,271.037 130.567,278.37 127,285.5C 122.918,290.584 117.752,291.918 111.5,289.5C 105.938,319.354 97.4377,348.354 86,376.5C 80.3963,386.708 75.0629,397.041 70,407.5C 65.6347,418.935 69.4681,426.435 81.5,430C 89.725,432.138 97.8916,431.971 106,429.5C 106.5,429.833 107,430.167 107.5,430.5C 103.907,441.11 106.574,449.777 115.5,456.5C 125.352,460.646 135.685,462.979 146.5,463.5C 144.031,464.317 141.365,464.817 138.5,465C 136.122,465.974 136.456,466.641 139.5,467C 138.207,467.49 136.873,467.657 135.5,467.5C 123.96,466.751 113.794,462.751 105,455.5C 103.67,456.582 102.17,457.249 100.5,457.5C 99.0937,457.027 98.427,456.027 98.5,454.5C 100.464,454.023 101.798,452.856 102.5,451C 101.459,445.842 100.459,440.675 99.5,435.5C 95.2351,436.439 90.9017,436.772 86.5,436.5C 85.0255,442.069 84.0255,447.736 83.5,453.5C 83.4551,457.306 84.1218,460.973 85.5,464.5C 87.8528,462.477 90.1862,460.477 92.5,458.5C 93.6737,459.514 94.3404,460.847 94.5,462.5C 89.5818,464.413 87.2485,467.746 87.5,472.5C 86.3933,474.969 84.3933,475.969 81.5,475.5C 75.8149,463.215 75.1483,450.548 79.5,437.5C 73.6839,434.866 68.5172,431.2 64,426.5C 62.3712,422.986 61.2045,419.32 60.5,415.5C 63.6954,404.123 68.5288,393.457 75,383.5C 87.1708,358.548 95.8374,332.215 101,304.5C 97.5473,309.621 93.7139,314.454 89.5,319C 80.1942,324.142 73.3609,321.642 69,311.5C 64.4947,294.702 69.6613,281.535 84.5,272C 86.9005,271.814 89.2338,271.314 91.5,270.5C 87.9137,264.972 86.7471,258.972 88,252.5C 90.6241,240.958 94.6241,229.958 100,219.5C 102.223,217.981 104.556,216.647 107,215.5C 112.012,217.093 116.512,219.259 120.5,222C 149.099,168.348 193.266,137.182 253,128.5C 253.383,129.056 253.883,129.389 254.5,129.5C 261.841,129.666 269.174,129.5 276.5,129C 277.737,128.768 278.737,128.268 279.5,127.5 Z"/></g>
<g><path style="opacity:0.047" fill="#967a85" d="M 307.5,132.5 C 312.888,132.762 317.888,134.095 322.5,136.5C 317.298,135.617 312.298,134.284 307.5,132.5 Z"/></g>
<g><path style="opacity:0.797" fill="#6f4350" d="M 515.5,133.5 C 525.461,133.613 534.628,136.28 543,141.5C 556.453,134.696 567.287,138.029 575.5,151.5C 594.596,159.203 602.262,173.037 598.5,193C 598.833,193.333 599.167,193.667 599.5,194C 597.037,197.465 594.204,200.631 591,203.5C 593.906,219.852 587.072,228.685 570.5,230C 564.727,235.718 557.727,239.052 549.5,240C 538.605,242.706 528.271,241.706 518.5,237C 511.5,236.333 504.5,236.333 497.5,237C 489.969,242.743 481.969,243.576 473.5,239.5C 473.167,239.667 472.833,239.833 472.5,240C 480.296,252.17 477.129,259.337 463,261.5C 454.356,258.526 451.022,252.526 453,243.5C 453.785,241.714 454.951,240.214 456.5,239C 460.429,237.971 464.429,237.137 468.5,236.5C 464.22,231.044 463.553,225.21 466.5,219C 456.542,209.933 453.375,198.766 457,185.5C 459.291,180.228 462.958,176.228 468,173.5C 468.928,157.529 476.761,146.029 491.5,139C 499.355,135.867 507.355,134.033 515.5,133.5 Z"/></g>
<g><path style="opacity:1" fill="#e4ebf1" d="M 431.5,307.5 C 431.446,327.795 434.113,347.795 439.5,367.5C 437.957,370.253 435.624,371.087 432.5,370C 429.675,367.876 427.175,365.376 425,362.5C 422.155,367.527 419.321,372.527 416.5,377.5C 414.857,377.52 413.524,376.853 412.5,375.5C 409.965,372.006 407.965,368.34 406.5,364.5C 406.58,361.219 405.913,358.219 404.5,355.5C 402.926,350.515 400.926,345.682 398.5,341C 399.744,335.529 400.744,330.029 401.5,324.5C 401.881,320.881 402.881,317.548 404.5,314.5C 406.044,314.703 407.378,315.37 408.5,316.5C 409.386,315.675 409.719,314.675 409.5,313.5C 410.58,310.257 410.747,306.924 410,303.5C 403.114,284.52 400.614,285.187 402.5,305.5C 395.637,301.902 388.637,298.569 381.5,295.5C 378.748,280.17 372.415,266.67 362.5,255C 361.207,254.51 359.873,254.343 358.5,254.5C 357.25,254.577 356.417,255.244 356,256.5C 355.958,268.401 352.124,278.735 344.5,287.5C 336.151,286.989 327.818,286.323 319.5,285.5C 307.983,285.899 296.316,286.566 284.5,287.5C 283.164,276.314 280.497,265.481 276.5,255C 272.579,254.041 269.412,255.208 267,258.5C 260.73,268.557 257.064,279.557 256,291.5C 249.638,295.565 242.804,298.565 235.5,300.5C 234.509,293.687 234.175,286.687 234.5,279.5C 233.178,279.33 232.011,279.663 231,280.5C 226.301,288.608 225.468,296.942 228.5,305.5C 228.961,327.01 232.961,348.01 240.5,368.5C 240.586,369.496 240.252,370.329 239.5,371C 237.285,372.044 234.952,372.71 232.5,373C 231.619,373.708 230.953,374.542 230.5,375.5C 229.849,370.208 227.182,366.208 222.5,363.5C 221.201,364.09 220.368,365.09 220,366.5C 218.773,369.874 218.606,373.208 219.5,376.5C 214.334,380.886 212.5,386.553 214,393.5C 215.41,398.914 218.41,403.247 223,406.5C 224.188,405.437 224.688,404.103 224.5,402.5C 226.099,402.232 227.432,402.566 228.5,403.5C 227.5,403.5 226.5,403.5 225.5,403.5C 225.335,406.518 225.502,409.518 226,412.5C 230.135,419.626 235.301,425.793 241.5,431C 240.552,431.483 239.552,431.649 238.5,431.5C 237.833,431.5 237.167,431.5 236.5,431.5C 224.481,427.658 213.814,421.491 204.5,413C 193.051,400.389 183.385,386.556 175.5,371.5C 172.196,374.468 168.696,377.135 165,379.5C 161.621,380.761 158.288,380.761 155,379.5C 154.333,377.167 154.333,374.833 155,372.5C 159.781,359.592 162.781,346.259 164,332.5C 163.685,316.299 164.019,299.966 165,283.5C 166.85,274.639 168.183,265.972 169,257.5C 167.151,260.034 165.485,262.7 164,265.5C 158.795,287.827 156.461,310.494 157,333.5C 156.209,346.877 153.542,359.877 149,372.5C 148.147,384.879 153.981,389.379 166.5,386C 168.691,384.081 171.024,382.747 173.5,382C 184.313,401.147 198.646,417.147 216.5,430C 223.655,433.828 231.155,436.662 239,438.5C 241.17,438.612 243.336,438.278 245.5,437.5C 247.5,437.5 249.5,437.5 251.5,437.5C 251.1,441.441 249.933,445.107 248,448.5C 240.38,446.155 232.547,445.155 224.5,445.5C 214.055,446.088 203.722,447.421 193.5,449.5C 181.634,451.953 170.634,456.453 160.5,463C 155.762,464.344 151.095,464.511 146.5,463.5C 135.685,462.979 125.352,460.646 115.5,456.5C 106.574,449.777 103.907,441.11 107.5,430.5C 107,430.167 106.5,429.833 106,429.5C 97.8916,431.971 89.725,432.138 81.5,430C 69.4681,426.435 65.6347,418.935 70,407.5C 75.0629,397.041 80.3963,386.708 86,376.5C 97.4377,348.354 105.938,319.354 111.5,289.5C 117.752,291.918 122.918,290.584 127,285.5C 130.567,278.37 133.567,271.037 136,263.5C 138.415,256.545 138.748,249.545 137,242.5C 133.514,237.689 129.681,233.189 125.5,229C 133.525,208.965 145.525,191.631 161.5,177C 210.211,135.431 265.211,124.598 326.5,144.5C 398.465,174.712 433.465,229.045 431.5,307.5 Z"/></g>
<g><path style="opacity:0.678" fill="#6c9cc1" d="M 399.5,139.5 C 402.908,138.828 405.575,139.828 407.5,142.5C 407.291,143.086 406.957,143.586 406.5,144C 414.591,147.725 414.258,151.558 405.5,155.5C 400.665,163.847 397.165,163.18 395,153.5C 391.368,152.784 388.868,150.784 387.5,147.5C 387.608,146.558 387.941,145.725 388.5,145C 391.5,144.167 394.5,143.333 397.5,142.5C 398.193,141.482 398.859,140.482 399.5,139.5 Z"/></g>
<g><path style="opacity:1" fill="#85bfd6" d="M 519.5,229.5 C 535.166,230.573 550.166,228.073 564.5,222C 567.626,219.55 569.959,216.55 571.5,213C 578.655,210.869 581.989,206.035 581.5,198.5C 580.59,192.255 577.59,187.255 572.5,183.5C 569.714,168.748 561.38,158.581 547.5,153C 532.832,147.286 518.166,147.286 503.5,153C 492.522,159.989 485.355,169.822 482,182.5C 474.214,188.669 471.88,196.336 475,205.5C 480.326,210.314 484.826,215.814 488.5,222C 495.915,225.556 503.582,228.056 511.5,229.5C 505.824,229.334 500.157,229.501 494.5,230C 487.575,237.01 480.408,237.177 473,230.5C 472.125,229.127 471.625,227.627 471.5,226C 473.121,222.622 473.955,219.122 474,215.5C 466.038,210.919 462.205,203.919 462.5,194.5C 463.15,186.182 467.484,180.849 475.5,178.5C 474.808,171.083 476.141,164.083 479.5,157.5C 491.122,144.233 505.788,138.733 523.5,141C 530.445,142.891 536.945,145.724 543,149.5C 554.684,141.669 563.851,144.003 570.5,156.5C 579.496,159.079 586.329,164.412 591,172.5C 596.374,184.282 593.708,193.616 583,200.5C 583.542,205.137 583.875,209.804 584,214.5C 581.256,221.021 576.423,223.688 569.5,222.5C 567.639,223.528 566.305,225.028 565.5,227C 552.879,233.823 539.546,235.823 525.5,233C 523.273,232.059 521.273,230.892 519.5,229.5 Z"/></g>
<g><path style="opacity:1" fill="#f8f8f9" d="M 519.5,229.5 C 516.833,229.5 514.167,229.5 511.5,229.5C 503.582,228.056 495.915,225.556 488.5,222C 484.826,215.814 480.326,210.314 475,205.5C 471.88,196.336 474.214,188.669 482,182.5C 485.355,169.822 492.522,159.989 503.5,153C 518.166,147.286 532.832,147.286 547.5,153C 561.38,158.581 569.714,168.748 572.5,183.5C 577.59,187.255 580.59,192.255 581.5,198.5C 581.989,206.035 578.655,210.869 571.5,213C 569.959,216.55 567.626,219.55 564.5,222C 550.166,228.073 535.166,230.573 519.5,229.5 Z"/></g>
<g><path style="opacity:1" fill="#734652" d="M 524.5,154.5 C 542.9,154.783 556.733,162.783 566,178.5C 566.882,181.789 567.548,185.123 568,188.5C 574.362,192.256 576.362,197.589 574,204.5C 572.363,206.81 570.196,208.31 567.5,209C 562.695,217.41 555.361,221.743 545.5,222C 528.536,223.709 511.869,222.375 495.5,218C 491.403,216.078 489.07,212.912 488.5,208.5C 483.06,207.215 480.393,203.715 480.5,198C 480.228,192.77 482.562,189.27 487.5,187.5C 491.412,166.915 503.746,155.915 524.5,154.5 Z"/></g>
<g><path style="opacity:1" fill="#f1c58c" d="M 522.5,160.5 C 536.656,160.831 548.489,166.164 558,176.5C 560.944,180.715 562.111,185.382 561.5,190.5C 544.181,191.545 526.847,191.712 509.5,191C 504.395,190.711 499.395,189.878 494.5,188.5C 495.074,176.389 501.074,167.889 512.5,163C 515.952,162.115 519.286,161.282 522.5,160.5 Z"/></g>
<g><path style="opacity:1" fill="#fefefe" d="M 348.5,182.5 C 351.817,182.781 354.983,182.781 358,182.5C 360.436,184.467 362.936,186.134 365.5,187.5C 368.381,191.568 371.547,195.568 375,199.5C 377.229,203.261 378.229,207.261 378,211.5C 376.199,213.478 374.199,215.144 372,216.5C 369.46,215.815 366.96,214.981 364.5,214C 361.593,209.424 357.76,205.924 353,203.5C 349.21,209.074 343.877,212.407 337,213.5C 331.016,212.546 325.183,211.046 319.5,209C 318.44,207.702 317.274,206.535 316,205.5C 314.234,206.502 312.567,206.168 311,204.5C 307.349,205.821 303.849,207.488 300.5,209.5C 296.61,209.415 292.61,209.248 288.5,209C 282.706,207.26 276.873,205.76 271,204.5C 264.077,206.197 257.243,208.197 250.5,210.5C 249.264,209.754 247.93,209.421 246.5,209.5C 246.34,207.801 246.506,206.134 247,204.5C 248.549,202.382 249.716,200.049 250.5,197.5C 251.5,197 252.5,196.5 253.5,196C 255.47,191.187 259.137,188.52 264.5,188C 270.272,187.226 275.939,186.726 281.5,186.5C 284.9,188.018 288.4,189.351 292,190.5C 298.725,187.903 305.725,186.236 313,185.5C 313.739,186.574 314.739,187.241 316,187.5C 319.473,186.102 322.306,186.935 324.5,190C 326.473,190.495 328.473,190.662 330.5,190.5C 330.5,191.5 330.5,192.5 330.5,193.5C 336.454,194.035 340.454,191.535 342.5,186C 344.432,184.541 346.432,183.375 348.5,182.5 Z"/></g>
<g><path style="opacity:1" fill="#fefefe" d="M 233.5,188.5 C 241.645,192.359 243.311,198.026 238.5,205.5C 236.415,206.541 234.748,208.041 233.5,210C 229.875,211.46 226.042,213.294 222,215.5C 220.089,214.593 218.256,214.593 216.5,215.5C 213.208,212.848 209.541,210.681 205.5,209C 206.869,206.761 206.369,204.927 204,203.5C 203.718,199.998 203.551,196.665 203.5,193.5C 204.687,192.481 205.687,191.314 206.5,190C 210.002,190.753 213.669,191.419 217.5,192C 218.399,193.236 219.566,194.07 221,194.5C 223.751,193.773 226.084,192.439 228,190.5C 230.281,191.457 232.114,190.79 233.5,188.5 Z"/></g>
<g><path style="opacity:1" fill="#917058" d="M 489.5,192.5 C 502.266,192.352 513.599,196.185 523.5,204C 511.093,204.281 498.76,203.448 486.5,201.5C 486.337,199.143 486.503,196.81 487,194.5C 487.995,193.934 488.828,193.267 489.5,192.5 Z"/></g>
<g><path style="opacity:1" fill="#916f58" d="M 564.5,193.5 C 568.573,194.587 570.239,197.254 569.5,201.5C 564.572,202.854 559.572,203.354 554.5,203C 557.729,199.601 561.062,196.435 564.5,193.5 Z"/></g>
<g><path style="opacity:1" fill="#a1765d" d="M 545.5,194.5 C 536.833,195.167 528.167,195.833 519.5,196.5C 518.244,196.539 517.244,196.039 516.5,195C 526.161,194.5 535.828,194.334 545.5,194.5 Z"/></g>
<g><path style="opacity:1" fill="#f8c974" d="M 519.5,196.5 C 528.167,195.833 536.833,195.167 545.5,194.5C 549.862,194.244 554.195,194.077 558.5,194C 554.357,198.233 550.023,202.233 545.5,206C 541.167,208 536.833,208 532.5,206C 528.099,202.812 523.766,199.645 519.5,196.5 Z"/></g>
<g><path style="opacity:1" fill="#eec18a" d="M 492.5,206.5 C 492.56,205.957 492.893,205.624 493.5,205.5C 499.791,206.799 506.124,207.799 512.5,208.5C 513.293,208.069 514.127,207.735 515,207.5C 520.128,208.259 525.295,208.759 530.5,209C 536.746,212.564 542.746,212.231 548.5,208C 552.373,207.73 556.206,207.23 560,206.5C 560.5,206.833 561,207.167 561.5,207.5C 560.747,209.753 559.414,211.587 557.5,213C 548.245,215.952 538.745,217.119 529,216.5C 518.123,217.393 507.623,215.893 497.5,212C 495.598,210.27 493.931,208.437 492.5,206.5 Z"/></g>
<g><path style="opacity:1" fill="#6c99bd" d="M 435.5,239.5 C 433.167,239.5 430.833,239.5 428.5,239.5C 424.614,230.7 420.614,221.867 416.5,213C 418.222,208.986 420.722,208.486 424,211.5C 427.667,216.833 431.333,222.167 435,227.5C 435.442,230.305 434.942,232.972 433.5,235.5C 434.225,236.867 434.892,238.2 435.5,239.5 Z"/></g>
<g><path style="opacity:0.813" fill="#6c9cc1" d="M 54.5,223.5 C 62.6874,223.275 67.354,227.275 68.5,235.5C 70.306,236.859 71.806,236.525 73,234.5C 75.8065,236.395 78.1398,238.728 80,241.5C 79.2709,244.246 78.9375,246.913 79,249.5C 76.9747,251.693 74.4747,252.693 71.5,252.5C 71.2317,255.119 71.565,257.619 72.5,260C 71.6005,262.192 70.6005,264.358 69.5,266.5C 64.0234,270.047 59.69,269.047 56.5,263.5C 54.9089,260.325 53.9089,256.991 53.5,253.5C 51.5328,253.261 49.6995,253.594 48,254.5C 45.441,253.02 42.7743,251.687 40,250.5C 39.654,248.782 39.154,247.115 38.5,245.5C 40.5713,244.024 41.5713,242.024 41.5,239.5C 44.7387,239.587 47.7387,238.92 50.5,237.5C 49.4913,232.001 50.8246,227.335 54.5,223.5 Z"/></g>
<g><path style="opacity:1" fill="#6c9abe" d="M 132.5,247.5 C 130.167,247.5 127.833,247.5 125.5,247.5C 126.556,242.718 124.556,240.551 119.5,241C 116.482,243.254 115.815,246.088 117.5,249.5C 111.47,251.505 105.47,253.505 99.5,255.5C 99.6389,251.946 98.3056,249.112 95.5,247C 97.4695,240.758 99.6362,234.591 102,228.5C 103.216,226.032 104.883,224.032 107,222.5C 117.709,228.59 126.209,236.923 132.5,247.5 Z"/></g>
<g><path style="opacity:1" fill="#f9f6f7" d="M 428.5,239.5 C 430.833,239.5 433.167,239.5 435.5,239.5C 437.435,240.15 439.435,240.483 441.5,240.5C 441.539,244.435 440.206,247.769 437.5,250.5C 436.115,249.426 434.949,248.093 434,246.5C 433.329,247.252 432.496,247.586 431.5,247.5C 429.94,245.046 428.94,242.38 428.5,239.5 Z"/></g>
<g><path style="opacity:1" fill="#724855" d="M 125.5,247.5 C 123.584,250.556 120.918,251.222 117.5,249.5C 115.815,246.088 116.482,243.254 119.5,241C 124.556,240.551 126.556,242.718 125.5,247.5 Z"/></g>
<g><path style="opacity:1" fill="#84bcd3" d="M 460.5,244.5 C 467.493,242.996 470.327,245.663 469,252.5C 466.681,254.936 464.181,255.103 461.5,253C 459.397,250.335 459.064,247.501 460.5,244.5 Z"/></g>
<g><path style="opacity:1" fill="#f28b8f" d="M 437.5,250.5 C 436.542,251.962 435.376,253.295 434,254.5C 433.153,252.146 432.32,249.812 431.5,247.5C 432.496,247.586 433.329,247.252 434,246.5C 434.949,248.093 436.115,249.426 437.5,250.5 Z"/></g>
<g><path style="opacity:1" fill="#fbf9fa" d="M 125.5,247.5 C 127.833,247.5 130.167,247.5 132.5,247.5C 132.451,251.078 131.785,254.411 130.5,257.5C 128.534,256.559 126.534,255.559 124.5,254.5C 119.371,262.648 112.204,265.315 103,262.5C 101.287,264.043 99.7871,265.709 98.5,267.5C 95.8352,265.165 94.5018,262.165 94.5,258.5C 96.9589,258.69 98.6255,257.69 99.5,255.5C 105.47,253.505 111.47,251.505 117.5,249.5C 120.918,251.222 123.584,250.556 125.5,247.5 Z"/></g>
<g><path style="opacity:1" fill="#f1888c" d="M 130.5,257.5 C 129.003,266.825 126.003,275.658 121.5,284C 120.167,284.667 118.833,284.667 117.5,284C 109.445,280.332 103.112,274.832 98.5,267.5C 99.7871,265.709 101.287,264.043 103,262.5C 112.204,265.315 119.371,262.648 124.5,254.5C 126.534,255.559 128.534,256.559 130.5,257.5 Z"/></g>
<g><path style="opacity:1" fill="#954242" d="M 344.5,287.5 C 349.117,288.487 353.784,289.154 358.5,289.5C 358.328,277.76 358.328,266.093 358.5,254.5C 359.873,254.343 361.207,254.51 362.5,255C 372.415,266.67 378.748,280.17 381.5,295.5C 388.637,298.569 395.637,301.902 402.5,305.5C 404.833,308.167 407.167,310.833 409.5,313.5C 409.719,314.675 409.386,315.675 408.5,316.5C 407.378,315.37 406.044,314.703 404.5,314.5C 403.791,313.596 402.791,313.263 401.5,313.5C 401.5,317.167 401.5,320.833 401.5,324.5C 400.744,330.029 399.744,335.529 398.5,341C 400.926,345.682 402.926,350.515 404.5,355.5C 403.183,355.313 401.85,355.98 400.5,357.5C 397.086,345.636 395.753,345.97 396.5,358.5C 395.693,362.295 394.026,365.628 391.5,368.5C 389.331,370.898 386.665,372.565 383.5,373.5C 381.531,371.498 379.364,371.164 377,372.5C 375.2,371.68 373.366,371.014 371.5,370.5C 372.226,366.693 370.893,364.026 367.5,362.5C 367.421,361.07 367.754,359.736 368.5,358.5C 366.897,349.561 365.563,340.727 364.5,332C 366.165,328.359 367.332,324.525 368,320.5C 371.339,318.717 374.506,316.717 377.5,314.5C 382.298,316.983 387.132,319.316 392,321.5C 392.692,324.936 393.692,328.27 395,331.5C 396.89,327.266 397.724,322.766 397.5,318C 397.453,315.111 397.12,312.278 396.5,309.5C 390.151,305.601 383.485,302.268 376.5,299.5C 374.426,288.363 370.426,278.029 364.5,268.5C 364.46,274.406 364.293,280.406 364,286.5C 364.126,290.496 362.793,293.829 360,296.5C 349.657,293.924 339.157,292.258 328.5,291.5C 314.126,291.475 299.626,292.141 285,293.5C 283.105,293.385 281.438,292.718 280,291.5C 278.253,281.348 275.92,271.348 273,261.5C 272,262.5 271,263.5 270,264.5C 268.333,268.833 266.667,273.167 265,277.5C 263.821,284.246 262.321,290.912 260.5,297.5C 251.736,301.035 243.07,304.869 234.5,309C 233.978,309.561 233.645,310.228 233.5,311C 234.209,314.841 234.875,318.674 235.5,322.5C 235.523,324.927 236.023,327.26 237,329.5C 237.556,327.115 237.39,324.782 236.5,322.5C 238.572,319.131 240.572,315.631 242.5,312C 246.367,312.923 249.7,311.757 252.5,308.5C 255.236,310.969 258.236,311.969 261.5,311.5C 262.386,312.325 262.719,313.325 262.5,314.5C 264.167,314.5 265.833,314.5 267.5,314.5C 269.943,322.119 272.609,329.619 275.5,337C 274.919,337.893 274.585,338.893 274.5,340C 276.174,347.029 276.841,354.029 276.5,361C 274.916,363.97 273.249,366.803 271.5,369.5C 268.446,372.004 264.946,374.004 261,375.5C 257.869,374.935 255.202,373.601 253,371.5C 251.775,371.862 250.609,372.362 249.5,373C 252.066,376.658 254.732,380.158 257.5,383.5C 259.122,386.455 261.122,389.122 263.5,391.5C 263.833,392.167 264.167,392.833 264.5,393.5C 263.85,393.804 263.183,394.137 262.5,394.5C 260.317,392.216 257.65,390.882 254.5,390.5C 248.82,383.805 244.153,376.472 240.5,368.5C 232.961,348.01 228.961,327.01 228.5,305.5C 231.009,304.079 233.343,302.412 235.5,300.5C 242.804,298.565 249.638,295.565 256,291.5C 257.064,279.557 260.73,268.557 267,258.5C 269.412,255.208 272.579,254.041 276.5,255C 280.497,265.481 283.164,276.314 284.5,287.5C 296.316,286.566 307.983,285.899 319.5,285.5C 327.818,286.323 336.151,286.989 344.5,287.5 Z"/></g>
<g><path style="opacity:1" fill="#744956" d="M 236.5,431.5 C 235.63,433.032 235.964,434.532 237.5,436C 240.168,436.567 242.834,437.067 245.5,437.5C 243.336,438.278 241.17,438.612 239,438.5C 231.155,436.662 223.655,433.828 216.5,430C 198.646,417.147 184.313,401.147 173.5,382C 171.024,382.747 168.691,384.081 166.5,386C 153.981,389.379 148.147,384.879 149,372.5C 153.542,359.877 156.209,346.877 157,333.5C 156.461,310.494 158.795,287.827 164,265.5C 165.485,262.7 167.151,260.034 169,257.5C 168.183,265.972 166.85,274.639 165,283.5C 164.019,299.966 163.685,316.299 164,332.5C 162.781,346.259 159.781,359.592 155,372.5C 154.333,374.833 154.333,377.167 155,379.5C 158.288,380.761 161.621,380.761 165,379.5C 168.696,377.135 172.196,374.468 175.5,371.5C 183.385,386.556 193.051,400.389 204.5,413C 213.814,421.491 224.481,427.658 236.5,431.5 Z"/></g>
<g><path style="opacity:1" fill="#fdebde" d="M 367.5,362.5 C 362.846,364.163 358.179,365.829 353.5,367.5C 351.868,370.966 349.368,373.633 346,375.5C 345.71,377.952 345.044,380.285 344,382.5C 343.119,387.783 343.952,392.783 346.5,397.5C 348.608,399.306 350.274,401.473 351.5,404C 349.942,404.21 348.609,404.71 347.5,405.5C 323.665,410.302 299.665,411.302 275.5,408.5C 293.482,399.818 295.148,388.651 280.5,375C 276.932,373.382 273.265,372.049 269.5,371C 270.416,370.722 271.082,370.222 271.5,369.5C 273.249,366.803 274.916,363.97 276.5,361C 276.841,354.029 276.174,347.029 274.5,340C 274.585,338.893 274.919,337.893 275.5,337C 272.609,329.619 269.943,322.119 267.5,314.5C 265.833,314.5 264.167,314.5 262.5,314.5C 262.719,313.325 262.386,312.325 261.5,311.5C 258.236,311.969 255.236,310.969 252.5,308.5C 249.7,311.757 246.367,312.923 242.5,312C 240.572,315.631 238.572,319.131 236.5,322.5C 236.167,322.5 235.833,322.5 235.5,322.5C 234.875,318.674 234.209,314.841 233.5,311C 233.645,310.228 233.978,309.561 234.5,309C 243.07,304.869 251.736,301.035 260.5,297.5C 262.321,290.912 263.821,284.246 265,277.5C 266.667,273.167 268.333,268.833 270,264.5C 271,263.5 272,262.5 273,261.5C 275.92,271.348 278.253,281.348 280,291.5C 281.438,292.718 283.105,293.385 285,293.5C 299.626,292.141 314.126,291.475 328.5,291.5C 339.157,292.258 349.657,293.924 360,296.5C 362.793,293.829 364.126,290.496 364,286.5C 364.293,280.406 364.46,274.406 364.5,268.5C 370.426,278.029 374.426,288.363 376.5,299.5C 383.485,302.268 390.151,305.601 396.5,309.5C 397.12,312.278 397.453,315.111 397.5,318C 397.724,322.766 396.89,327.266 395,331.5C 393.692,328.27 392.692,324.936 392,321.5C 387.132,319.316 382.298,316.983 377.5,314.5C 374.506,316.717 371.339,318.717 368,320.5C 367.332,324.525 366.165,328.359 364.5,332C 365.563,340.727 366.897,349.561 368.5,358.5C 367.754,359.736 367.421,361.07 367.5,362.5 Z"/></g>
<g><path style="opacity:1" fill="#6f9bbf" d="M 358.5,254.5 C 358.328,266.093 358.328,277.76 358.5,289.5C 353.784,289.154 349.117,288.487 344.5,287.5C 352.124,278.735 355.958,268.401 356,256.5C 356.417,255.244 357.25,254.577 358.5,254.5 Z"/></g>
<g><path style="opacity:1" fill="#e2e8ee" d="M 457.5,298.5 C 455.781,295.591 453.781,292.757 451.5,290C 448.121,288.261 444.788,286.428 441.5,284.5C 440.583,285.127 439.583,285.461 438.5,285.5C 437.829,278.452 436.829,271.452 435.5,264.5C 437.527,264.338 439.527,264.505 441.5,265C 456.163,271.823 461.496,282.99 457.5,298.5 Z"/></g>
<g><path style="opacity:0.675" fill="#85c1d7" d="M 46.5,265.5 C 50.1935,265.186 52.5268,266.852 53.5,270.5C 56.7467,271.578 58.7467,273.744 59.5,277C 57.4217,280.652 55.5884,284.485 54,288.5C 50.587,287.423 48.087,285.256 46.5,282C 42.8463,282.075 40.1796,280.575 38.5,277.5C 39.1667,275.5 40.5,274.167 42.5,273.5C 43.3078,271.577 43.8078,269.577 44,267.5C 44.9947,266.934 45.828,266.267 46.5,265.5 Z"/></g>
<g><path style="opacity:1" fill="#e0e6ed" d="M 106.5,287.5 C 103.059,287.301 99.7256,287.801 96.5,289C 94.7015,291.472 92.3682,293.139 89.5,294C 84.5994,299.724 81.266,306.224 79.5,313.5C 77.9256,313.063 76.7589,312.063 76,310.5C 71.6645,298.675 74.1645,288.508 83.5,280C 91.8986,276.681 99.3986,278.181 106,284.5C 106.483,285.448 106.649,286.448 106.5,287.5 Z"/></g>
<g><path style="opacity:1" fill="#88c2d8" d="M 235.5,300.5 C 233.343,302.412 231.009,304.079 228.5,305.5C 225.468,296.942 226.301,288.608 231,280.5C 232.011,279.663 233.178,279.33 234.5,279.5C 234.175,286.687 234.509,293.687 235.5,300.5 Z"/></g>
<g><path style="opacity:1" fill="#6e9bbf" d="M 457.5,298.5 C 455.08,300.924 452.413,301.091 449.5,299C 446,296.167 442.5,293.333 439,290.5C 438.506,288.866 438.34,287.199 438.5,285.5C 439.583,285.461 440.583,285.127 441.5,284.5C 444.788,286.428 448.121,288.261 451.5,290C 453.781,292.757 455.781,295.591 457.5,298.5 Z"/></g>
<g><path style="opacity:1" fill="#86bed5" d="M 106.5,287.5 C 99.408,296.435 92.0747,305.269 84.5,314C 82.6131,314.78 80.9464,314.613 79.5,313.5C 81.266,306.224 84.5994,299.724 89.5,294C 92.3682,293.139 94.7015,291.472 96.5,289C 99.7256,287.801 103.059,287.301 106.5,287.5 Z"/></g>
<g><path style="opacity:1" fill="#8ac1d7" d="M 409.5,313.5 C 407.167,310.833 404.833,308.167 402.5,305.5C 400.614,285.187 403.114,284.52 410,303.5C 410.747,306.924 410.58,310.257 409.5,313.5 Z"/></g>
<g><path style="opacity:0.004" fill="#95747d" d="M 441.5,300.5 C 440.504,300.586 439.671,300.252 439,299.5C 438.821,303.025 438.321,306.359 437.5,309.5C 437.334,305.154 437.501,300.821 438,296.5C 439.376,297.705 440.542,299.038 441.5,300.5 Z"/></g>
<g><path style="opacity:1" fill="#b79296" d="M 404.5,314.5 C 402.881,317.548 401.881,320.881 401.5,324.5C 401.5,320.833 401.5,317.167 401.5,313.5C 402.791,313.263 403.791,313.596 404.5,314.5 Z"/></g>
<g><path style="opacity:1" fill="#c5928c" d="M 235.5,322.5 C 235.833,322.5 236.167,322.5 236.5,322.5C 237.39,324.782 237.556,327.115 237,329.5C 236.023,327.26 235.523,324.927 235.5,322.5 Z"/></g>
<g><path style="opacity:0.796" fill="#85c1d7" d="M 487.5,338.5 C 490.167,338.5 492.833,338.5 495.5,338.5C 495.452,341.292 496.785,343.125 499.5,344C 499.326,347.32 498.326,350.653 496.5,354C 501.758,355.933 505.758,359.266 508.5,364C 507.896,366.584 507.063,369.084 506,371.5C 505.667,371.167 505.333,370.833 505,370.5C 501.153,373.814 497.153,374.148 493,371.5C 491.794,374.948 490.294,378.281 488.5,381.5C 485.381,383.496 482.047,384.663 478.5,385C 477.019,382.422 475.686,379.756 474.5,377C 474.511,374.35 474.511,371.683 474.5,369C 475.5,368 476.5,367 477.5,366C 475.623,363.079 473.623,360.246 471.5,357.5C 472.58,355.004 473.914,352.67 475.5,350.5C 476.167,350.833 476.833,351.167 477.5,351.5C 478.524,350.147 479.857,349.48 481.5,349.5C 480.901,344.22 482.901,340.553 487.5,338.5 Z"/></g>
<g><path style="opacity:1" fill="#6e9cc0" d="M 230.5,375.5 C 236.198,383.882 241.532,392.549 246.5,401.5C 247.167,404.167 247.833,406.833 248.5,409.5C 251.252,415.511 252.585,421.845 252.5,428.5C 245.131,420.467 237.798,412.467 230.5,404.5C 228.555,401.516 226.889,398.349 225.5,395C 225.833,394.667 226.167,394.333 226.5,394C 223.271,388.47 220.937,382.636 219.5,376.5C 218.606,373.208 218.773,369.874 220,366.5C 220.368,365.09 221.201,364.09 222.5,363.5C 227.182,366.208 229.849,370.208 230.5,375.5 Z"/></g>
<g><path style="opacity:1" fill="#fae0d5" d="M 400.5,357.5 C 401.787,362.802 401.787,368.136 400.5,373.5C 397.686,371.319 394.686,369.652 391.5,368.5C 394.026,365.628 395.693,362.295 396.5,358.5C 395.753,345.97 397.086,345.636 400.5,357.5 Z"/></g>
<g><path style="opacity:1" fill="#994444" d="M 316.5,355.5 C 324.918,355.542 333.251,356.375 341.5,358C 346.755,359.174 348.922,362.34 348,367.5C 346.786,369.049 345.286,370.215 343.5,371C 335.219,372.287 326.886,372.787 318.5,372.5C 319.216,377.432 317.883,381.598 314.5,385C 309.057,386.193 305.89,384.027 305,378.5C 304.161,373.079 304.494,367.746 306,362.5C 308.625,358.684 312.125,356.35 316.5,355.5 Z"/></g>
<g><path style="opacity:1" fill="#f1868a" d="M 315.5,358.5 C 324.611,358.207 333.611,359.041 342.5,361C 345.21,362.46 345.876,364.46 344.5,367C 337.819,369.515 330.985,370.015 324,368.5C 321.476,369.104 318.976,369.771 316.5,370.5C 315.679,373.447 315.179,376.447 315,379.5C 312.334,383.522 310.001,383.189 308,378.5C 307.333,373.833 307.333,369.167 308,364.5C 310.134,361.847 312.634,359.847 315.5,358.5 Z"/></g>
<g><path style="opacity:1" fill="#feded3" d="M 367.5,362.5 C 370.893,364.026 372.226,366.693 371.5,370.5C 366.79,372.452 362.29,375.119 358,378.5C 354.859,387.914 357.359,395.247 365.5,400.5C 359.516,402.494 353.516,404.161 347.5,405.5C 348.609,404.71 349.942,404.21 351.5,404C 350.274,401.473 348.608,399.306 346.5,397.5C 343.952,392.783 343.119,387.783 344,382.5C 345.044,380.285 345.71,377.952 346,375.5C 349.368,373.633 351.868,370.966 353.5,367.5C 358.179,365.829 362.846,364.163 367.5,362.5 Z"/></g>
<g><path style="opacity:1" fill="#fdfefe" d="M 115.5,368.5 C 119.41,370.24 122.577,372.907 125,376.5C 128.517,372.282 132.351,371.782 136.5,375C 138.056,379.582 136.722,383.248 132.5,386C 119.026,390.88 112.526,386.047 113,371.5C 114.045,370.627 114.878,369.627 115.5,368.5 Z"/></g>
<g><path style="opacity:1" fill="#fdd4ca" d="M 271.5,369.5 C 271.082,370.222 270.416,370.722 269.5,371C 273.265,372.049 276.932,373.382 280.5,375C 295.148,388.651 293.482,399.818 275.5,408.5C 271.78,408.436 268.114,407.936 264.5,407C 271.099,402.412 271.099,397.912 264.5,393.5C 264.167,392.833 263.833,392.167 263.5,391.5C 263.74,388.421 263.407,385.421 262.5,382.5C 260.418,381.106 258.751,381.439 257.5,383.5C 254.732,380.158 252.066,376.658 249.5,373C 250.609,372.362 251.775,371.862 253,371.5C 255.202,373.601 257.869,374.935 261,375.5C 264.946,374.004 268.446,372.004 271.5,369.5 Z"/></g>
<g><path style="opacity:0.691" fill="#6c9cc1" d="M 461.5,375.5 C 465.781,374.483 468.114,376.15 468.5,380.5C 470.5,381.833 472.167,383.5 473.5,385.5C 473.243,389.25 470.909,391.417 466.5,392C 464.487,395.974 461.821,396.808 458.5,394.5C 457.682,391.893 457.182,389.226 457,386.5C 450.368,380.734 451.534,377.567 460.5,377C 461.056,376.617 461.389,376.117 461.5,375.5 Z"/></g>
<g><path style="opacity:1" fill="#e4e9ef" d="M 433.5,391.5 C 437.096,398.653 440.596,405.986 444,413.5C 446.003,420.106 444.17,425.272 438.5,429C 426.767,434.775 414.6,435.942 402,432.5C 401.308,433.025 400.808,433.692 400.5,434.5C 403.916,440.831 406.916,447.331 409.5,454C 409.006,457.008 407.673,459.508 405.5,461.5C 399.167,465.163 392.5,467.83 385.5,469.5C 369.61,471.114 353.776,470.781 338,468.5C 336.69,467.87 335.856,466.87 335.5,465.5C 331.724,454.812 327.391,444.479 322.5,434.5C 320.546,430.262 318.879,425.929 317.5,421.5C 316.419,419.236 315.085,417.069 313.5,415C 322.209,414.592 330.876,413.759 339.5,412.5C 340.5,412.833 341.5,413.167 342.5,413.5C 341.196,418.63 341.196,423.63 342.5,428.5C 345.244,439.048 351.911,442.548 362.5,439C 380.923,431.461 395.923,419.628 407.5,403.5C 408.513,409.677 412.013,413.344 418,414.5C 421.597,412.447 424.43,409.614 426.5,406C 425.833,402.834 424.5,400 422.5,397.5C 420.493,398.171 418.66,399.171 417,400.5C 414.726,399.312 412.56,398.979 410.5,399.5C 414.817,392.875 418.65,385.875 422,378.5C 423,377.5 424,376.5 425,375.5C 427.593,381.022 430.426,386.355 433.5,391.5 Z"/></g>
<g><path style="opacity:1" fill="#e7dde2" d="M 219.5,376.5 C 220.937,382.636 223.271,388.47 226.5,394C 226.167,394.333 225.833,394.667 225.5,395C 226.889,398.349 228.555,401.516 230.5,404.5C 229.508,404.672 228.842,404.338 228.5,403.5C 227.432,402.566 226.099,402.232 224.5,402.5C 224.688,404.103 224.188,405.437 223,406.5C 218.41,403.247 215.41,398.914 214,393.5C 212.5,386.553 214.334,380.886 219.5,376.5 Z"/></g>
<g><path style="opacity:1" fill="#fe8483" d="M 391.5,385.5 C 391.068,386.71 390.401,387.71 389.5,388.5C 388.186,385.856 386.853,383.19 385.5,380.5C 386.617,377.687 388.45,377.02 391,378.5C 392.048,380.921 392.214,383.254 391.5,385.5 Z"/></g>
<g><path style="opacity:1" fill="#e5dbe0" d="M 406.5,364.5 C 407.965,368.34 409.965,372.006 412.5,375.5C 413.524,376.853 414.857,377.52 416.5,377.5C 407.512,396.466 394.512,412.132 377.5,424.5C 380.619,419.248 382.953,413.581 384.5,407.5C 384.333,406.5 384.167,405.5 384,404.5C 381.242,405.795 378.742,407.461 376.5,409.5C 375.702,409.043 375.369,408.376 375.5,407.5C 375.5,405.5 375.5,403.5 375.5,401.5C 388.93,396.903 398.763,388.236 405,375.5C 406.108,371.914 406.608,368.247 406.5,364.5 Z"/></g>
<g><path style="opacity:1" fill="#fdd0c7" d="M 391.5,368.5 C 394.686,369.652 397.686,371.319 400.5,373.5C 398.925,378.686 395.925,382.686 391.5,385.5C 392.214,383.254 392.048,380.921 391,378.5C 388.45,377.02 386.617,377.687 385.5,380.5C 386.853,383.19 388.186,385.856 389.5,388.5C 382.058,393.554 374.058,397.554 365.5,400.5C 357.359,395.247 354.859,387.914 358,378.5C 362.29,375.119 366.79,372.452 371.5,370.5C 373.366,371.014 375.2,371.68 377,372.5C 379.364,371.164 381.531,371.498 383.5,373.5C 386.665,372.565 389.331,370.898 391.5,368.5 Z"/></g>
<g><path style="opacity:1" fill="#ff8382" d="M 377.5,378.5 C 379.117,379.038 380.784,379.371 382.5,379.5C 382.723,381.342 383.057,383.175 383.5,385C 383.612,386.662 382.946,387.829 381.5,388.5C 377.33,386.176 375.996,382.843 377.5,378.5 Z"/></g>
<g><path style="opacity:1" fill="#ff8382" d="M 267.5,380.5 C 271.559,380.919 273.559,383.252 273.5,387.5C 270.706,391.595 268.539,391.262 267,386.5C 266.322,384.402 266.489,382.402 267.5,380.5 Z"/></g>
<g><path style="opacity:1" fill="#fa8080" d="M 263.5,391.5 C 261.122,389.122 259.122,386.455 257.5,383.5C 258.751,381.439 260.418,381.106 262.5,382.5C 263.407,385.421 263.74,388.421 263.5,391.5 Z"/></g>
<g><path style="opacity:0.805" fill="#714450" d="M 437.5,385.5 C 444.329,395.81 449.329,406.976 452.5,419C 450.415,428.424 444.748,434.758 435.5,438C 427.706,440.03 420.039,441.53 412.5,442.5C 416.95,448.53 417.45,454.863 414,461.5C 413.241,463.063 412.074,464.063 410.5,464.5C 408.999,463.248 407.332,462.248 405.5,461.5C 407.673,459.508 409.006,457.008 409.5,454C 406.916,447.331 403.916,440.831 400.5,434.5C 400.808,433.692 401.308,433.025 402,432.5C 414.6,435.942 426.767,434.775 438.5,429C 444.17,425.272 446.003,420.106 444,413.5C 440.596,405.986 437.096,398.653 433.5,391.5C 435.29,389.728 436.623,387.728 437.5,385.5 Z"/></g>
<g><path style="opacity:1" fill="#8c4549" d="M 404.5,355.5 C 405.913,358.219 406.58,361.219 406.5,364.5C 406.608,368.247 406.108,371.914 405,375.5C 398.763,388.236 388.93,396.903 375.5,401.5C 371.429,403.185 367.429,404.852 363.5,406.5C 358.58,408.126 353.58,409.459 348.5,410.5C 347.873,415.141 347.54,419.807 347.5,424.5C 347.067,427.259 345.4,428.592 342.5,428.5C 341.196,423.63 341.196,418.63 342.5,413.5C 341.5,413.167 340.5,412.833 339.5,412.5C 330.876,413.759 322.209,414.592 313.5,415C 315.085,417.069 316.419,419.236 317.5,421.5C 315.585,421.216 313.919,421.549 312.5,422.5C 310.186,420.523 307.853,418.523 305.5,416.5C 304.413,421.254 302.413,425.587 299.5,429.5C 298.167,429.5 296.833,429.5 295.5,429.5C 291.243,421.761 284.743,416.761 276,414.5C 275.5,414.833 275,415.167 274.5,415.5C 275.193,416.518 275.859,417.518 276.5,418.5C 276.565,418.938 276.399,419.272 276,419.5C 274.266,418.751 272.433,418.251 270.5,418C 268.03,416.979 265.696,415.812 263.5,414.5C 263.953,413.542 264.619,412.708 265.5,412C 262.883,411.178 260.216,410.678 257.5,410.5C 254.658,410.688 251.658,410.355 248.5,409.5C 247.833,406.833 247.167,404.167 246.5,401.5C 251.34,401.838 256.34,401.838 261.5,401.5C 262.583,400.635 262.749,399.635 262,398.5C 259.295,395.964 256.795,393.297 254.5,390.5C 257.65,390.882 260.317,392.216 262.5,394.5C 263.183,394.137 263.85,393.804 264.5,393.5C 271.099,397.912 271.099,402.412 264.5,407C 268.114,407.936 271.78,408.436 275.5,408.5C 299.665,411.302 323.665,410.302 347.5,405.5C 353.516,404.161 359.516,402.494 365.5,400.5C 374.058,397.554 382.058,393.554 389.5,388.5C 390.401,387.71 391.068,386.71 391.5,385.5C 395.925,382.686 398.925,378.686 400.5,373.5C 401.787,368.136 401.787,362.802 400.5,357.5C 401.85,355.98 403.183,355.313 404.5,355.5 Z"/></g>
<g><path style="opacity:1" fill="#eaccd0" d="M 240.5,368.5 C 244.153,376.472 248.82,383.805 254.5,390.5C 256.795,393.297 259.295,395.964 262,398.5C 262.749,399.635 262.583,400.635 261.5,401.5C 256.34,401.838 251.34,401.838 246.5,401.5C 241.532,392.549 236.198,383.882 230.5,375.5C 230.953,374.542 231.619,373.708 232.5,373C 234.952,372.71 237.285,372.044 239.5,371C 240.252,370.329 240.586,369.496 240.5,368.5 Z"/></g>
<g><path style="opacity:1" fill="#fdfdfd" d="M 407.5,403.5 C 407.738,401.596 408.738,400.262 410.5,399.5C 412.56,398.979 414.726,399.312 417,400.5C 418.66,399.171 420.493,398.171 422.5,397.5C 424.5,400 425.833,402.834 426.5,406C 424.43,409.614 421.597,412.447 418,414.5C 412.013,413.344 408.513,409.677 407.5,403.5 Z"/></g>
<g><path style="opacity:1" fill="#86bfd5" d="M 228.5,403.5 C 228.842,404.338 229.508,404.672 230.5,404.5C 237.798,412.467 245.131,420.467 252.5,428.5C 251.547,430.61 249.881,431.777 247.5,432C 244.304,432.805 241.304,432.638 238.5,431.5C 239.552,431.649 240.552,431.483 241.5,431C 235.301,425.793 230.135,419.626 226,412.5C 225.502,409.518 225.335,406.518 225.5,403.5C 226.5,403.5 227.5,403.5 228.5,403.5 Z"/></g>
<g><path style="opacity:1" fill="#6d9bbf" d="M 375.5,401.5 C 375.5,403.5 375.5,405.5 375.5,407.5C 373.5,413.202 371.333,419.202 369,425.5C 367.613,427.047 366.447,428.713 365.5,430.5C 361.441,433.792 356.774,434.959 351.5,434C 350.619,433.292 349.953,432.458 349.5,431.5C 353.28,423.851 357.78,416.518 363,409.5C 363.483,408.552 363.649,407.552 363.5,406.5C 367.429,404.852 371.429,403.185 375.5,401.5 Z"/></g>
<g><path style="opacity:1" fill="#89c0d7" d="M 377.5,424.5 C 373.728,426.934 369.728,428.934 365.5,430.5C 366.447,428.713 367.613,427.047 369,425.5C 371.333,419.202 373.5,413.202 375.5,407.5C 375.369,408.376 375.702,409.043 376.5,409.5C 378.742,407.461 381.242,405.795 384,404.5C 384.167,405.5 384.333,406.5 384.5,407.5C 382.953,413.581 380.619,419.248 377.5,424.5 Z"/></g>
<g><path style="opacity:1" fill="#e0e4ea" d="M 363.5,406.5 C 363.649,407.552 363.483,408.552 363,409.5C 357.78,416.518 353.28,423.851 349.5,431.5C 348.883,431.389 348.383,431.056 348,430.5C 347.505,428.527 347.338,426.527 347.5,424.5C 347.54,419.807 347.873,415.141 348.5,410.5C 353.58,409.459 358.58,408.126 363.5,406.5 Z"/></g>
<g><path style="opacity:1" fill="#7a4852" d="M 431.5,307.5 C 432.75,307.577 433.583,308.244 434,309.5C 434.192,311.577 434.692,313.577 435.5,315.5C 436.183,315.137 436.85,314.804 437.5,314.5C 438.42,332.6 441.087,350.434 445.5,368C 445.919,370.981 444.919,373.314 442.5,375C 439.576,375.988 436.576,376.654 433.5,377C 434.703,379.905 436.036,382.738 437.5,385.5C 436.623,387.728 435.29,389.728 433.5,391.5C 430.426,386.355 427.593,381.022 425,375.5C 424,376.5 423,377.5 422,378.5C 418.65,385.875 414.817,392.875 410.5,399.5C 408.738,400.262 407.738,401.596 407.5,403.5C 395.923,419.628 380.923,431.461 362.5,439C 351.911,442.548 345.244,439.048 342.5,428.5C 345.4,428.592 347.067,427.259 347.5,424.5C 347.338,426.527 347.505,428.527 348,430.5C 348.383,431.056 348.883,431.389 349.5,431.5C 349.953,432.458 350.619,433.292 351.5,434C 356.774,434.959 361.441,433.792 365.5,430.5C 369.728,428.934 373.728,426.934 377.5,424.5C 394.512,412.132 407.512,396.466 416.5,377.5C 419.321,372.527 422.155,367.527 425,362.5C 427.175,365.376 429.675,367.876 432.5,370C 435.624,371.087 437.957,370.253 439.5,367.5C 434.113,347.795 431.446,327.795 431.5,307.5 Z"/></g>
<g><path style="opacity:1" fill="#e0d8dd" d="M 257.5,410.5 C 260.216,410.678 262.883,411.178 265.5,412C 264.619,412.708 263.953,413.542 263.5,414.5C 261.881,416.119 260.215,417.785 258.5,419.5C 257.227,417.286 256.227,414.953 255.5,412.5C 255.747,411.287 256.414,410.62 257.5,410.5 Z"/></g>
<g><path style="opacity:1" fill="#e2e5ea" d="M 295.5,429.5 C 295.423,430.75 294.756,431.583 293.5,432C 290.854,432.497 288.187,432.664 285.5,432.5C 283.511,427.191 280.511,422.524 276.5,418.5C 275.859,417.518 275.193,416.518 274.5,415.5C 275,415.167 275.5,414.833 276,414.5C 284.743,416.761 291.243,421.761 295.5,429.5 Z"/></g>
<g><path style="opacity:1" fill="#f4e2d7" d="M 289.5,416.5 C 289.917,415.876 290.584,415.543 291.5,415.5C 300.547,414.686 302.714,418.019 298,425.5C 295.666,422 292.832,419 289.5,416.5 Z"/></g>
<g><path style="opacity:1" fill="#e0e4e9" d="M 312.5,422.5 C 311.765,428.229 308.432,431.229 302.5,431.5C 300.97,431.36 299.97,430.693 299.5,429.5C 302.413,425.587 304.413,421.254 305.5,416.5C 307.853,418.523 310.186,420.523 312.5,422.5 Z"/></g>
<g><path style="opacity:1" fill="#6e9abe" d="M 301.5,480.5 C 300.282,485.135 298.282,489.468 295.5,493.5C 294.675,494.386 293.675,494.719 292.5,494.5C 292.176,497.819 290.509,500.152 287.5,501.5C 285.702,494.527 282.036,488.693 276.5,484C 272.5,481.333 268.5,478.667 264.5,476C 259.667,473.915 254.667,472.415 249.5,471.5C 250.382,468.209 251.048,464.876 251.5,461.5C 255.165,450.335 258.331,439.002 261,427.5C 265.953,417.106 271.286,417.106 277,427.5C 278.333,430.167 279.667,432.833 281,435.5C 283.566,452.62 290.399,467.62 301.5,480.5 Z"/></g>
<g><path style="opacity:1" fill="#7c454e" d="M 248.5,409.5 C 251.658,410.355 254.658,410.688 257.5,410.5C 256.414,410.62 255.747,411.287 255.5,412.5C 256.227,414.953 257.227,417.286 258.5,419.5C 260.215,417.785 261.881,416.119 263.5,414.5C 265.696,415.812 268.03,416.979 270.5,418C 272.433,418.251 274.266,418.751 276,419.5C 276.399,419.272 276.565,418.938 276.5,418.5C 280.511,422.524 283.511,427.191 285.5,432.5C 288.187,432.664 290.854,432.497 293.5,432C 294.756,431.583 295.423,430.75 295.5,429.5C 296.833,429.5 298.167,429.5 299.5,429.5C 299.97,430.693 300.97,431.36 302.5,431.5C 308.432,431.229 311.765,428.229 312.5,422.5C 313.919,421.549 315.585,421.216 317.5,421.5C 318.879,425.929 320.546,430.262 322.5,434.5C 322.631,435.239 322.464,435.906 322,436.5C 317.928,435.949 313.761,435.949 309.5,436.5C 308.947,434.448 307.947,434.115 306.5,435.5C 305.041,435.433 303.708,435.766 302.5,436.5C 300.742,436.123 299.075,435.456 297.5,434.5C 296.478,434.855 295.811,435.522 295.5,436.5C 293.214,436.595 291.214,437.262 289.5,438.5C 288.876,438.917 288.543,439.584 288.5,440.5C 289.723,447.4 291.557,454.066 294,460.5C 295.312,462.955 296.478,465.455 297.5,468C 299.193,468.484 300.527,467.984 301.5,466.5C 304.285,465.916 305.952,466.916 306.5,469.5C 306.998,472.487 307.498,475.487 308,478.5C 308.383,479.056 308.883,479.389 309.5,479.5C 311.331,482.079 312.998,484.746 314.5,487.5C 312.833,487.5 311.167,487.5 309.5,487.5C 309.5,488.5 309.5,489.5 309.5,490.5C 308.009,486.33 305.342,482.997 301.5,480.5C 290.399,467.62 283.566,452.62 281,435.5C 279.667,432.833 278.333,430.167 277,427.5C 271.286,417.106 265.953,417.106 261,427.5C 258.331,439.002 255.165,450.335 251.5,461.5C 249.958,462.301 248.292,462.634 246.5,462.5C 246.762,461.022 246.429,459.689 245.5,458.5C 244.893,458.624 244.56,458.957 244.5,459.5C 240.891,460.638 237.558,462.304 234.5,464.5C 232.862,465.657 231.196,466.824 229.5,468C 233.294,469.114 236.96,470.28 240.5,471.5C 238.597,471.796 236.93,472.463 235.5,473.5C 232.303,473.027 229.137,472.361 226,471.5C 224.649,473.018 223.149,474.351 221.5,475.5C 218.509,478.671 215.842,482.671 213.5,487.5C 212.904,481.093 214.737,475.093 219,469.5C 226.096,462.403 234.262,456.903 243.5,453C 237.499,451.931 231.499,451.097 225.5,450.5C 223.143,450.663 220.81,450.497 218.5,450C 219.337,448.989 219.67,447.822 219.5,446.5C 221.415,446.784 223.081,446.451 224.5,445.5C 232.547,445.155 240.38,446.155 248,448.5C 249.933,445.107 251.1,441.441 251.5,437.5C 249.5,437.5 247.5,437.5 245.5,437.5C 242.834,437.067 240.168,436.567 237.5,436C 235.964,434.532 235.63,433.032 236.5,431.5C 237.167,431.5 237.833,431.5 238.5,431.5C 241.304,432.638 244.304,432.805 247.5,432C 249.881,431.777 251.547,430.61 252.5,428.5C 252.585,421.845 251.252,415.511 248.5,409.5 Z"/></g>
<g><path style="opacity:1" fill="#6e9abe" d="M 302.5,436.5 C 302.024,440.384 303.024,443.717 305.5,446.5C 307.695,444.941 308.695,442.774 308.5,440C 308.693,437.992 308.026,436.492 306.5,435.5C 307.947,434.115 308.947,434.448 309.5,436.5C 310.832,441.857 310.666,447.19 309,452.5C 306.585,457.273 304.085,461.939 301.5,466.5C 300.527,467.984 299.193,468.484 297.5,468C 296.478,465.455 295.312,462.955 294,460.5C 291.557,454.066 289.723,447.4 288.5,440.5C 288.543,439.584 288.876,438.917 289.5,438.5C 290.21,440.746 290.71,443.08 291,445.5C 291.576,448.124 292.91,448.791 295,447.5C 295.499,443.848 295.665,440.182 295.5,436.5C 295.811,435.522 296.478,434.855 297.5,434.5C 299.075,435.456 300.742,436.123 302.5,436.5 Z"/></g>
<g><path style="opacity:1" fill="#c6c8cb" d="M 306.5,435.5 C 308.026,436.492 308.693,437.992 308.5,440C 308.695,442.774 307.695,444.941 305.5,446.5C 303.024,443.717 302.024,440.384 302.5,436.5C 303.708,435.766 305.041,435.433 306.5,435.5 Z"/></g>
<g><path style="opacity:1" fill="#764550" d="M 322.5,434.5 C 327.391,444.479 331.724,454.812 335.5,465.5C 333.091,464.202 331.425,464.869 330.5,467.5C 327.546,461.837 325.046,455.837 323,449.5C 320.513,447.191 318.513,444.524 317,441.5C 315.732,451.82 312.232,461.153 306.5,469.5C 305.952,466.916 304.285,465.916 301.5,466.5C 304.085,461.939 306.585,457.273 309,452.5C 310.666,447.19 310.832,441.857 309.5,436.5C 313.761,435.949 317.928,435.949 322,436.5C 322.464,435.906 322.631,435.239 322.5,434.5 Z"/></g>
<g><path style="opacity:1" fill="#85bed5" d="M 98.5,454.5 C 97.1634,453.685 96.1634,452.518 95.5,451C 93.8333,450.333 92.1667,450.333 90.5,451C 90.561,453.402 91.2276,455.902 92.5,458.5C 90.1862,460.477 87.8528,462.477 85.5,464.5C 84.1218,460.973 83.4551,457.306 83.5,453.5C 84.0255,447.736 85.0255,442.069 86.5,436.5C 90.9017,436.772 95.2351,436.439 99.5,435.5C 100.459,440.675 101.459,445.842 102.5,451C 101.798,452.856 100.464,454.023 98.5,454.5 Z"/></g>
<g><path style="opacity:1" fill="#c9c9ca" d="M 295.5,436.5 C 295.665,440.182 295.499,443.848 295,447.5C 292.91,448.791 291.576,448.124 291,445.5C 290.71,443.08 290.21,440.746 289.5,438.5C 291.214,437.262 293.214,436.595 295.5,436.5 Z"/></g>
<g><path style="opacity:1" fill="#6f9abe" d="M 330.5,467.5 C 333.765,474.628 336.431,481.961 338.5,489.5C 332.941,486.02 326.941,483.187 320.5,481C 316.83,480.452 313.163,479.952 309.5,479.5C 308.883,479.389 308.383,479.056 308,478.5C 307.498,475.487 306.998,472.487 306.5,469.5C 312.232,461.153 315.732,451.82 317,441.5C 318.513,444.524 320.513,447.191 323,449.5C 325.046,455.837 327.546,461.837 330.5,467.5 Z"/></g>
<g><path style="opacity:1" fill="#654e5a" d="M 224.5,445.5 C 223.081,446.451 221.415,446.784 219.5,446.5C 219.67,447.822 219.337,448.989 218.5,450C 220.81,450.497 223.143,450.663 225.5,450.5C 215.58,451.371 205.58,452.704 195.5,454.5C 194.032,453.221 193.365,451.554 193.5,449.5C 203.722,447.421 214.055,446.088 224.5,445.5 Z"/></g>
<g><path style="opacity:1" fill="#c7c9ca" d="M 98.5,454.5 C 98.427,456.027 99.0937,457.027 100.5,457.5C 99.8767,459.694 99.5434,461.861 99.5,464C 97.5048,464.613 95.8381,464.113 94.5,462.5C 94.3404,460.847 93.6737,459.514 92.5,458.5C 91.2276,455.902 90.561,453.402 90.5,451C 92.1667,450.333 93.8333,450.333 95.5,451C 96.1634,452.518 97.1634,453.685 98.5,454.5 Z"/></g>
<g><path style="opacity:1" fill="#5e5561" d="M 193.5,449.5 C 193.365,451.554 194.032,453.221 195.5,454.5C 184.782,457.576 174.448,461.743 164.5,467C 159.481,471.682 154.148,476.015 148.5,480C 145.534,481.266 142.534,482.433 139.5,483.5C 137.413,483.461 136.079,482.461 135.5,480.5C 136.817,476.565 137.817,472.565 138.5,468.5C 137.209,468.737 136.209,468.404 135.5,467.5C 136.873,467.657 138.207,467.49 139.5,467C 136.456,466.641 136.122,465.974 138.5,465C 141.365,464.817 144.031,464.317 146.5,463.5C 151.095,464.511 155.762,464.344 160.5,463C 170.634,456.453 181.634,451.953 193.5,449.5 Z"/></g>
<g><path style="opacity:1" fill="#84c0d7" d="M 225.5,450.5 C 231.499,451.097 237.499,451.931 243.5,453C 234.262,456.903 226.096,462.403 219,469.5C 214.737,475.093 212.904,481.093 213.5,487.5C 204.098,497.084 202.098,508.084 207.5,520.5C 203.557,523.148 199.224,524.815 194.5,525.5C 191.833,525.833 189.167,526.167 186.5,526.5C 175.172,527.773 163.839,527.773 152.5,526.5C 144.58,523.79 137.08,520.124 130,515.5C 125.667,519.505 120.667,522.505 115,524.5C 112.865,523.119 110.532,522.119 108,521.5C 105.845,522.244 103.845,523.244 102,524.5C 97.0502,520.42 92.2169,520.586 87.5,525C 83.2467,525.2 79.08,525.7 75,526.5C 73.9326,525.809 72.7659,525.309 71.5,525C 69.8387,510.723 76.172,501.723 90.5,498C 95.5374,497.337 100.537,497.504 105.5,498.5C 106.01,495.612 105.344,493.279 103.5,491.5C 97.4675,485.797 92.1342,479.464 87.5,472.5C 87.2485,467.746 89.5818,464.413 94.5,462.5C 95.8381,464.113 97.5048,464.613 99.5,464C 99.5434,461.861 99.8767,459.694 100.5,457.5C 102.17,457.249 103.67,456.582 105,455.5C 113.794,462.751 123.96,466.751 135.5,467.5C 136.209,468.404 137.209,468.737 138.5,468.5C 137.817,472.565 136.817,476.565 135.5,480.5C 136.079,482.461 137.413,483.461 139.5,483.5C 142.534,482.433 145.534,481.266 148.5,480C 154.148,476.015 159.481,471.682 164.5,467C 174.448,461.743 184.782,457.576 195.5,454.5C 205.58,452.704 215.58,451.371 225.5,450.5 Z"/></g>
<g><path style="opacity:1" fill="#ec888c" d="M 244.5,459.5 C 245.372,462.317 245.372,465.317 244.5,468.5C 244.167,469.833 243.833,471.167 243.5,472.5C 242.893,472.376 242.56,472.043 242.5,471.5C 243.434,470.432 243.768,469.099 243.5,467.5C 241.208,467.244 239.041,467.577 237,468.5C 235.905,467.307 235.072,465.973 234.5,464.5C 237.558,462.304 240.891,460.638 244.5,459.5 Z"/></g>
<g><path style="opacity:0.676" fill="#85c1d7" d="M 55.5,465.5 C 57.3904,465.297 58.8904,465.963 60,467.5C 61,469.5 62,471.5 63,473.5C 66.6801,470.347 69.8468,471.18 72.5,476C 71.5265,479.64 69.1932,481.974 65.5,483C 67.065,486.226 66.2317,488.726 63,490.5C 60.4243,489.543 58.4243,487.876 57,485.5C 54.2189,488.152 51.0523,488.819 47.5,487.5C 47.0688,486.707 46.7355,485.873 46.5,485C 47.816,481.191 50.1493,478.191 53.5,476C 51.6398,471.783 52.3065,468.283 55.5,465.5 Z"/></g>
<g><path style="opacity:0.81" fill="#80434b" d="M 405.5,461.5 C 407.332,462.248 408.999,463.248 410.5,464.5C 406.11,470.455 400.11,473.455 392.5,473.5C 390.639,471.438 388.305,470.105 385.5,469.5C 392.5,467.83 399.167,465.163 405.5,461.5 Z"/></g>
<g><path style="opacity:1" fill="#f8f0f1" d="M 234.5,464.5 C 235.072,465.973 235.905,467.307 237,468.5C 239.041,467.577 241.208,467.244 243.5,467.5C 243.768,469.099 243.434,470.432 242.5,471.5C 241.833,471.5 241.167,471.5 240.5,471.5C 236.96,470.28 233.294,469.114 229.5,468C 231.196,466.824 232.862,465.657 234.5,464.5 Z"/></g>
<g><path style="opacity:1" fill="#dce1e7" d="M 143.5,469.5 C 145.857,469.337 148.19,469.503 150.5,470C 148.317,472.35 145.984,474.517 143.5,476.5C 143.162,474.345 143.162,472.011 143.5,469.5 Z"/></g>
<g><path style="opacity:0.859" fill="#8a4246" d="M 335.5,465.5 C 335.856,466.87 336.69,467.87 338,468.5C 353.776,470.781 369.61,471.114 385.5,469.5C 388.305,470.105 390.639,471.438 392.5,473.5C 388.491,475.421 384.157,476.588 379.5,477C 370.833,477.333 362.167,477.667 353.5,478C 357.71,479.609 361.71,481.442 365.5,483.5C 361.989,483.899 358.656,484.566 355.5,485.5C 351.615,484.095 347.615,483.095 343.5,482.5C 343.366,484.292 343.699,485.958 344.5,487.5C 343.685,488.429 342.852,489.429 342,490.5C 341.667,490.167 341.333,489.833 341,489.5C 340.517,490.448 340.351,491.448 340.5,492.5C 339.833,491.5 339.167,490.5 338.5,489.5C 336.431,481.961 333.765,474.628 330.5,467.5C 331.425,464.869 333.091,464.202 335.5,465.5 Z"/></g>
<g><path style="opacity:1" fill="#7594b5" d="M 235.5,473.5 C 235.167,474.5 234.5,475.167 233.5,475.5C 228.065,477.107 223.232,479.774 219,483.5C 219.491,480.819 220.324,478.153 221.5,475.5C 223.149,474.351 224.649,473.018 226,471.5C 229.137,472.361 232.303,473.027 235.5,473.5 Z"/></g>
<g><path style="opacity:0.969" fill="#944445" d="M 244.5,459.5 C 244.56,458.957 244.893,458.624 245.5,458.5C 246.429,459.689 246.762,461.022 246.5,462.5C 248.292,462.634 249.958,462.301 251.5,461.5C 251.048,464.876 250.382,468.209 249.5,471.5C 254.667,472.415 259.667,473.915 264.5,476C 268.5,478.667 272.5,481.333 276.5,484C 282.036,488.693 285.702,494.527 287.5,501.5C 289.25,509.929 287.583,517.595 282.5,524.5C 282.833,524.833 283.167,525.167 283.5,525.5C 292.478,519.689 299.978,512.355 306,503.5C 307.636,499.29 308.803,494.956 309.5,490.5C 309.5,489.5 309.5,488.5 309.5,487.5C 311.167,487.5 312.833,487.5 314.5,487.5C 314.5,489.5 314.5,491.5 314.5,493.5C 325.791,494.093 335.624,498.093 344,505.5C 343.566,501.022 342.399,496.688 340.5,492.5C 340.351,491.448 340.517,490.448 341,489.5C 341.333,489.833 341.667,490.167 342,490.5C 342.852,489.429 343.685,488.429 344.5,487.5C 346.167,490.833 347.833,494.167 349.5,497.5C 349.839,502.246 351.172,506.58 353.5,510.5C 354.686,516.1 355.353,521.767 355.5,527.5C 366.216,527.844 376.882,527.344 387.5,526C 390.792,523.588 391.959,520.421 391,516.5C 390.348,509.854 387.181,504.854 381.5,501.5C 378.725,498.395 375.392,496.062 371.5,494.5C 366.167,491.5 360.833,488.5 355.5,485.5C 358.656,484.566 361.989,483.899 365.5,483.5C 378.192,488.366 388.359,496.366 396,507.5C 399.631,514.778 399.298,521.778 395,528.5C 393.736,530.607 391.903,531.607 389.5,531.5C 376.567,533.201 363.567,533.868 350.5,533.5C 332.524,531.448 314.524,531.115 296.5,532.5C 281.861,534.639 267.361,536.972 253,539.5C 245.811,538.854 238.644,537.854 231.5,536.5C 229.562,534.837 227.228,534.171 224.5,534.5C 220.167,534.5 215.833,534.5 211.5,534.5C 211.253,531.413 210.253,528.58 208.5,526C 208.205,522.55 208.705,518.716 210,514.5C 210.383,513.944 210.883,513.611 211.5,513.5C 214.438,522.673 220.771,528.173 230.5,530C 242.153,531.91 253.82,531.91 265.5,530C 281.177,523.342 285.844,512.508 279.5,497.5C 276.542,492.874 272.876,488.874 268.5,485.5C 260.061,479.871 250.728,478.038 240.5,480C 238.292,480.191 236.292,480.691 234.5,481.5C 232.597,481.796 230.93,482.463 229.5,483.5C 228.761,483.631 228.094,483.464 227.5,483C 229.714,480.625 231.714,478.125 233.5,475.5C 234.5,475.167 235.167,474.5 235.5,473.5C 236.93,472.463 238.597,471.796 240.5,471.5C 241.167,471.5 241.833,471.5 242.5,471.5C 242.56,472.043 242.893,472.376 243.5,472.5C 243.833,471.167 244.167,469.833 244.5,468.5C 245.372,465.317 245.372,462.317 244.5,459.5 Z"/></g>
<g><path style="opacity:1" fill="#f9f7f7" d="M 309.5,479.5 C 313.163,479.952 316.83,480.452 320.5,481C 326.941,483.187 332.941,486.02 338.5,489.5C 339.167,490.5 339.833,491.5 340.5,492.5C 342.399,496.688 343.566,501.022 344,505.5C 335.624,498.093 325.791,494.093 314.5,493.5C 314.5,491.5 314.5,489.5 314.5,487.5C 312.998,484.746 311.331,482.079 309.5,479.5 Z"/></g>
<g><path style="opacity:1" fill="#83464b" d="M 221.5,475.5 C 220.324,478.153 219.491,480.819 219,483.5C 223.232,479.774 228.065,477.107 233.5,475.5C 231.714,478.125 229.714,480.625 227.5,483C 228.094,483.464 228.761,483.631 229.5,483.5C 225.295,485.364 221.628,488.03 218.5,491.5C 211.765,497.373 209.432,504.706 211.5,513.5C 210.883,513.611 210.383,513.944 210,514.5C 208.705,518.716 208.205,522.55 208.5,526C 210.253,528.58 211.253,531.413 211.5,534.5C 206.167,534.5 200.833,534.5 195.5,534.5C 195.736,531.391 195.403,528.391 194.5,525.5C 199.224,524.815 203.557,523.148 207.5,520.5C 202.098,508.084 204.098,497.084 213.5,487.5C 215.842,482.671 218.509,478.671 221.5,475.5 Z"/></g>
<g><path style="opacity:1" fill="#fed3c9" d="M 268.5,485.5 C 267.503,485.47 266.836,485.97 266.5,487C 268.327,493.017 266.327,497.351 260.5,500C 250.508,504.188 241.342,503.021 233,496.5C 230.653,490.538 232.153,485.704 237.5,482C 236.552,481.517 235.552,481.351 234.5,481.5C 236.292,480.691 238.292,480.191 240.5,480C 250.728,478.038 260.061,479.871 268.5,485.5 Z"/></g>
<g><path style="opacity:1" fill="#faf8f9" d="M 301.5,480.5 C 305.342,482.997 308.009,486.33 309.5,490.5C 308.803,494.956 307.636,499.29 306,503.5C 299.978,512.355 292.478,519.689 283.5,525.5C 283.167,525.167 282.833,524.833 282.5,524.5C 287.583,517.595 289.25,509.929 287.5,501.5C 290.509,500.152 292.176,497.819 292.5,494.5C 293.675,494.719 294.675,494.386 295.5,493.5C 298.282,489.468 300.282,485.135 301.5,480.5 Z"/></g>
<g><path style="opacity:1" fill="#fcd2c8" d="M 355.5,485.5 C 360.833,488.5 366.167,491.5 371.5,494.5C 368.03,500.08 363.03,501.913 356.5,500C 354.35,498.589 352.016,497.755 349.5,497.5C 347.833,494.167 346.167,490.833 344.5,487.5C 343.699,485.958 343.366,484.292 343.5,482.5C 347.615,483.095 351.615,484.095 355.5,485.5 Z"/></g>
<g><path style="opacity:1" fill="#fee1d5" d="M 234.5,481.5 C 235.552,481.351 236.552,481.517 237.5,482C 232.153,485.704 230.653,490.538 233,496.5C 241.342,503.021 250.508,504.188 260.5,500C 266.327,497.351 268.327,493.017 266.5,487C 266.836,485.97 267.503,485.47 268.5,485.5C 272.876,488.874 276.542,492.874 279.5,497.5C 272.715,509.49 262.215,515.49 248,515.5C 238.184,515.09 229.851,511.423 223,504.5C 221.329,500.107 219.829,495.774 218.5,491.5C 221.628,488.03 225.295,485.364 229.5,483.5C 230.93,482.463 232.597,481.796 234.5,481.5 Z"/></g>
<g><path style="opacity:0.75" fill="#624c59" d="M 87.5,472.5 C 92.1342,479.464 97.4675,485.797 103.5,491.5C 94,494.542 84.6666,496.875 75.5,498.5C 80.278,494.111 85.9447,491.278 92.5,490C 87.5036,486.171 83.837,481.338 81.5,475.5C 84.3933,475.969 86.3933,474.969 87.5,472.5 Z"/></g>
<g><path style="opacity:1" fill="#fee0d4" d="M 371.5,494.5 C 375.392,496.062 378.725,498.395 381.5,501.5C 380.869,503.448 379.869,505.281 378.5,507C 370.592,511.287 362.259,512.454 353.5,510.5C 351.172,506.58 349.839,502.246 349.5,497.5C 352.016,497.755 354.35,498.589 356.5,500C 363.03,501.913 368.03,500.08 371.5,494.5 Z"/></g>
<g><path style="opacity:1" fill="#fceadd" d="M 218.5,491.5 C 219.829,495.774 221.329,500.107 223,504.5C 229.851,511.423 238.184,515.09 248,515.5C 262.215,515.49 272.715,509.49 279.5,497.5C 285.844,512.508 281.177,523.342 265.5,530C 253.82,531.91 242.153,531.91 230.5,530C 220.771,528.173 214.438,522.673 211.5,513.5C 209.432,504.706 211.765,497.373 218.5,491.5 Z"/></g>
<g><path style="opacity:1" fill="#f9cbc2" d="M 340.5,512.5 C 338.28,514.022 335.78,515.022 333,515.5C 331.97,515.836 331.47,516.503 331.5,517.5C 329.219,511.625 325.885,506.291 321.5,501.5C 322,501.167 322.5,500.833 323,500.5C 329.905,503.182 335.739,507.182 340.5,512.5 Z"/></g>
<g><path style="opacity:1" fill="#fdebde" d="M 381.5,501.5 C 387.181,504.854 390.348,509.854 391,516.5C 391.959,520.421 390.792,523.588 387.5,526C 376.882,527.344 366.216,527.844 355.5,527.5C 355.353,521.767 354.686,516.1 353.5,510.5C 362.259,512.454 370.592,511.287 378.5,507C 379.869,505.281 380.869,503.448 381.5,501.5 Z"/></g>
<g><path style="opacity:1" fill="#fbd9ce" d="M 325.5,519.5 C 320.036,519.544 314.369,519.378 308.5,519C 307.09,517.628 305.423,516.795 303.5,516.5C 306.824,511.863 310.157,507.196 313.5,502.5C 319.24,506.995 323.24,512.661 325.5,519.5 Z"/></g>
<g><path style="opacity:1" fill="#fbe6da" d="M 303.5,516.5 C 305.423,516.795 307.09,517.628 308.5,519C 314.369,519.378 320.036,519.544 325.5,519.5C 325.607,521.903 324.607,523.736 322.5,525C 313.472,525.606 304.472,525.273 295.5,524C 298.666,522 301.332,519.5 303.5,516.5 Z"/></g>
<g><path style="opacity:1" fill="#fbe4d8" d="M 340.5,512.5 C 345.25,515.117 346.25,518.617 343.5,523C 339.239,524.363 334.905,524.696 330.5,524C 331.423,521.959 331.756,519.792 331.5,517.5C 331.47,516.503 331.97,515.836 333,515.5C 335.78,515.022 338.28,514.022 340.5,512.5 Z"/></g>
<g><path style="opacity:0.804" fill="#535763" d="M 103.5,491.5 C 105.344,493.279 106.01,495.612 105.5,498.5C 100.537,497.504 95.5374,497.337 90.5,498C 76.172,501.723 69.8387,510.723 71.5,525C 72.7659,525.309 73.9326,525.809 75,526.5C 79.08,525.7 83.2467,525.2 87.5,525C 92.2169,520.586 97.0502,520.42 102,524.5C 103.845,523.244 105.845,522.244 108,521.5C 110.532,522.119 112.865,523.119 115,524.5C 120.667,522.505 125.667,519.505 130,515.5C 137.08,520.124 144.58,523.79 152.5,526.5C 151.17,527.832 149.503,528.665 147.5,529C 146.177,529.816 145.511,530.983 145.5,532.5C 140.712,530.426 135.879,528.426 131,526.5C 125.533,529.1 119.866,531.1 114,532.5C 111.532,531.896 109.532,530.562 108,528.5C 106.561,530.448 104.728,531.781 102.5,532.5C 100.19,531.205 97.8567,529.871 95.5,528.5C 92.6783,530.822 89.5116,532.488 86,533.5C 80.4247,533.57 74.758,533.237 69,532.5C 66.6074,530.726 64.9408,528.393 64,525.5C 61.8662,513.785 65.6995,504.785 75.5,498.5C 84.6666,496.875 94,494.542 103.5,491.5 Z"/></g>
<g><path style="opacity:0.808" fill="#75454e" d="M 194.5,525.5 C 195.403,528.391 195.736,531.391 195.5,534.5C 191.044,534.354 186.378,534.354 181.5,534.5C 181.869,532.559 182.536,530.725 183.5,529C 183.167,528.667 182.833,528.333 182.5,528C 184.058,527.79 185.391,527.29 186.5,526.5C 189.167,526.167 191.833,525.833 194.5,525.5 Z"/></g>
<g><path style="opacity:0.811" fill="#614e5b" d="M 152.5,526.5 C 163.839,527.773 175.172,527.773 186.5,526.5C 185.391,527.29 184.058,527.79 182.5,528C 182.833,528.333 183.167,528.667 183.5,529C 182.536,530.725 181.869,532.559 181.5,534.5C 178.365,535.305 175.365,535.639 172.5,535.5C 163.196,534.64 154.196,533.64 145.5,532.5C 145.511,530.983 146.177,529.816 147.5,529C 149.503,528.665 151.17,527.832 152.5,526.5 Z"/></g>
<g><path style="opacity:0.012" fill="#a87073" d="M 296.5,532.5 C 314.524,531.115 332.524,531.448 350.5,533.5C 349.504,533.414 348.671,533.748 348,534.5C 330.753,532.78 313.587,532.113 296.5,532.5 Z"/></g>
<g><path style="opacity:0.118" fill="#b5888b" d="M 389.5,531.5 C 387.172,532.718 384.672,533.718 382,534.5C 371.53,534.796 361.03,534.462 350.5,533.5C 363.567,533.868 376.567,533.201 389.5,531.5 Z"/></g>
<g><path style="opacity:0.502" fill="#b48385" d="M 224.5,534.5 C 227.228,534.171 229.562,534.837 231.5,536.5C 228.933,536.279 226.599,535.612 224.5,534.5 Z"/></g>
<g><path style="opacity:0.047" fill="#a8c2d8" d="M 372.5,549.5 C 373.946,548.387 375.613,548.22 377.5,549C 375.866,549.494 374.199,549.66 372.5,549.5 Z"/></g>
</svg>
